<svg width="26" height="25" viewBox="0 0 26 25" fill="none" xmlns="http://www.w3.org/2000/svg">
<g clip-path="url(#clip0_2547_450)">
<path d="M4.09886 24.6484C4.23601 24.6935 4.38055 24.716 4.5251 24.716H16.4399C16.5844 24.716 16.7288 24.6935 16.866 24.6484C18.7299 24.044 20.1274 22.4991 20.5133 20.6169C21.1656 17.4416 20.3963 14.1358 18.402 11.5464L17.9277 10.9301C17.1737 9.95253 16.09 9.25066 14.8744 8.95435C14.8682 8.95286 14.8618 8.95245 14.8556 8.95096C15.5414 8.04427 15.9628 6.93113 15.9628 5.71347C15.9628 2.71976 13.5043 0.28418 10.4824 0.28418C7.46053 0.28418 5.00203 2.71976 5.00203 5.71347C5.00203 6.93099 5.42334 8.04427 6.10921 8.95082C6.1029 8.95245 6.09619 8.95272 6.08975 8.95435C4.87488 9.25066 3.79114 9.95253 3.03717 10.9308L2.56284 11.5464C0.568529 14.1358 -0.200781 17.4417 0.451523 20.6169C0.837479 22.4991 2.23512 24.044 4.09886 24.6484ZM10.4824 2.99883C11.9936 2.99883 13.2226 4.21634 13.2226 5.71347C13.2226 7.2106 11.9936 8.42812 10.4824 8.42812C8.9712 8.42812 7.74223 7.2106 7.74223 5.71347C7.74223 4.21634 8.9712 2.99883 10.4824 2.99883ZM4.74116 13.1933L5.21549 12.5776C5.59145 12.0898 6.13469 11.7392 6.74479 11.5907C9.18932 10.9955 11.7763 10.9955 14.2195 11.5907C14.8303 11.7392 15.3735 12.0898 15.7495 12.5769L16.2238 13.1926C17.7378 15.1589 18.3224 17.6682 17.8281 20.076C17.6508 20.9409 17.034 21.6632 16.199 22.0014H4.76582C3.93089 21.6634 3.31407 20.9409 3.13678 20.076C2.64245 17.6682 3.2272 15.1591 4.74116 13.1933ZM22.0889 0.609123C21.34 0.406339 20.5672 0.843533 20.3626 1.58545C20.2267 2.07829 20.142 2.57317 20.0772 3.069C19.4734 3.12492 18.8656 3.24382 18.251 3.47457C17.9207 3.59917 17.6305 3.83996 17.4533 4.1744C17.0677 4.90234 17.3506 5.80211 18.0852 6.18419C18.6874 6.49733 19.2969 6.68871 19.9105 6.81616C19.9388 7.33371 19.9771 7.85153 20.0795 8.37193C20.1787 8.87115 20.5511 9.30006 21.0793 9.44774C21.8279 9.65704 22.6061 9.22568 22.8174 8.48404C22.9587 7.98794 23.0387 7.48939 23.1088 6.99031C23.711 6.93384 24.3167 6.8182 24.929 6.59492C25.268 6.47059 25.5657 6.22396 25.7435 5.88015C26.1204 5.15181 25.83 4.25869 25.0948 3.88529C24.491 3.57867 23.8801 3.39041 23.2653 3.26242C23.2431 2.74202 23.1987 2.22081 23.1003 1.69742C23.0042 1.19006 22.6256 0.754221 22.0889 0.609123Z" fill="white"/>
</g>
<defs>
<clipPath id="clip0_2547_450">
<rect width="26" height="25" fill="white"/>
</clipPath>
</defs>
</svg>
