<svg width="63" height="63" viewBox="0 0 63 63" fill="none" xmlns="http://www.w3.org/2000/svg">
<g filter="url(#filter0_d_849_65)">
<circle cx="31.8999" cy="27.1035" r="17" fill="#B071E3"/>
</g>
<g clip-path="url(#clip0_849_65)">
<path d="M35.3809 20.1035H29.4189C27.4785 20.1035 25.8999 21.6821 25.8999 23.6225V29.5846C25.8999 31.5249 27.4785 33.1035 29.4189 33.1035H35.381C37.3213 33.1035 38.8999 31.5249 38.8999 29.5846V23.6225C38.8999 21.6821 37.3213 20.1035 35.3809 20.1035V20.1035ZM38.1378 29.5846C38.1378 31.1047 36.9011 32.3414 35.3809 32.3414H29.4189C27.8987 32.3414 26.662 31.1047 26.662 29.5846V23.6225C26.662 22.1023 27.8987 20.8656 29.4189 20.8656H35.381C36.9011 20.8656 38.1378 22.1023 38.1378 23.6225V29.5846Z" fill="black"/>
<path d="M32.3998 23.0488C30.4398 23.0488 28.8452 24.6434 28.8452 26.6034C28.8452 28.5634 30.4398 30.158 32.3998 30.158C34.3598 30.158 35.9544 28.5634 35.9544 26.6034C35.9544 24.6434 34.3598 23.0488 32.3998 23.0488ZM32.3998 29.3959C30.8601 29.3959 29.6073 28.1432 29.6073 26.6034C29.6073 25.0637 30.8601 23.8109 32.3998 23.8109C33.9396 23.8109 35.1923 25.0637 35.1923 26.6034C35.1923 28.1432 33.9396 29.3959 32.3998 29.3959Z" fill="black"/>
<path d="M36.0396 21.7866C35.4604 21.7866 34.9893 22.2578 34.9893 22.837C34.9893 23.4162 35.4604 23.8874 36.0396 23.8874C36.6188 23.8874 37.09 23.4162 37.09 22.837C37.09 22.2577 36.6188 21.7866 36.0396 21.7866ZM36.0396 23.1252C35.8807 23.1252 35.7514 22.9958 35.7514 22.837C35.7514 22.678 35.8807 22.5487 36.0396 22.5487C36.1986 22.5487 36.3279 22.678 36.3279 22.837C36.3279 22.9958 36.1986 23.1252 36.0396 23.1252Z" fill="black"/>
</g>
<defs>
<filter id="filter0_d_849_65" x="0.899902" y="0.103516" width="62" height="62" filterUnits="userSpaceOnUse" color-interpolation-filters="sRGB">
<feFlood flood-opacity="0" result="BackgroundImageFix"/>
<feColorMatrix in="SourceAlpha" type="matrix" values="0 0 0 0 0 0 0 0 0 0 0 0 0 0 0 0 0 0 127 0" result="hardAlpha"/>
<feOffset dy="4"/>
<feGaussianBlur stdDeviation="7"/>
<feColorMatrix type="matrix" values="0 0 0 0 0 0 0 0 0 0 0 0 0 0 0 0 0 0 0.15 0"/>
<feBlend mode="normal" in2="BackgroundImageFix" result="effect1_dropShadow_849_65"/>
<feBlend mode="normal" in="SourceGraphic" in2="effect1_dropShadow_849_65" result="shape"/>
</filter>
<clipPath id="clip0_849_65">
<rect width="13" height="13" fill="white" transform="translate(25.8999 20.1035)"/>
</clipPath>
</defs>
</svg>
